<?xml version="1.0" standalone="no"?>
<!DOCTYPE svg PUBLIC "-//W3C//DTD SVG 20010904//EN"
 "http://www.w3.org/TR/2001/REC-SVG-20010904/DTD/svg10.dtd">
<svg version="1.0" xmlns="http://www.w3.org/2000/svg"
 width="682.000000pt" height="682.000000pt" viewBox="0 0 682.000000 682.000000"
 preserveAspectRatio="xMidYMid meet">
<metadata>
Created by potrace 1.16, written by Peter Selinger 2001-2019
</metadata>
<g transform="translate(0.000000,682.000000) scale(0.100000,-0.100000)"
fill="#000000" stroke="none">
<path d="M380 6801 c-183 -59 -310 -188 -364 -370 -15 -50 -16 -321 -16 -3021
0 -3284 -5 -3020 65 -3146 50 -90 134 -168 234 -217 l84 -42 3031 0 3031 0 80
39 c109 53 198 142 251 251 l39 80 0 3031 0 3031 -42 84 c-49 100 -127 184
-217 234 -126 70 139 65 -3151 64 -2820 0 -2973 -1 -3025 -18z m3231 -1077
c330 -56 600 -222 762 -466 126 -191 186 -357 207 -573 16 -177 -19 -396 -90
-551 -16 -37 -30 -68 -30 -70 0 -2 42 -23 93 -48 389 -188 661 -539 754 -976
14 -66 18 -130 18 -290 0 -226 -12 -298 -75 -458 -132 -333 -447 -655 -764
-782 -125 -50 -1494 -442 -1564 -448 -157 -13 -317 79 -390 225 -28 55 -1032
3533 -1039 3598 -16 153 81 327 223 398 27 13 168 59 314 100 146 42 469 135
718 207 250 72 477 134 505 139 86 14 258 12 358 -5z"/>
<path d="M3325 5489 c-51 -8 -1386 -390 -1439 -411 -40 -16 -93 -64 -113 -102
-37 -71 -42 -50 471 -1830 268 -929 496 -1707 507 -1728 28 -55 88 -91 157
-96 50 -3 119 15 522 131 926 268 994 291 1139 387 175 115 306 265 397 455
153 318 151 657 -5 980 -163 339 -506 581 -879 621 l-63 7 64 66 c104 108 161
206 213 361 27 80 28 95 28 260 0 165 -1 180 -28 260 -71 215 -213 409 -378
517 -168 109 -394 156 -593 122z"/>
</g>
</svg>
